REM DIRINDEX 1\2,1\3,1\4,1\5
REM DIRNAME "folder01","folder02","folder03","folder04","folder05"
TITLE ""
FILE "1Q_t_0288-0300.mp3" MP3
  TRACK 01 AUDIO
    TITLE "3:cjc172_1783"
    INDEX 01 00:00:00
  TRACK 02 AUDIO
    TITLE "0:"
    INDEX 01 00:01:18
  TRACK 03 AUDIO
    TITLE "4:cjc172_1784"
    INDEX 01 00:01:33
  TRACK 04 AUDIO
    TITLE "0:"
    INDEX 01 00:04:12
  TRACK 05 AUDIO
    TITLE "5:cjc172_1785"
    INDEX 01 00:04:26
  TRACK 06 AUDIO
    TITLE "0:"
    INDEX 01 00:09:13
  TRACK 07 AUDIO
    TITLE "3:cjc172_1786"
    INDEX 01 00:09:66
  TRACK 08 AUDIO
    TITLE "0:"
    INDEX 01 00:10:66
  TRACK 09 AUDIO
    TITLE "4:cjc172_1787"
    INDEX 01 00:11:08
  TRACK 10 AUDIO
    TITLE "0:"
    INDEX 01 00:13:38
  TRACK 11 AUDIO
    TITLE "5:cjc172_1788"
    INDEX 01 00:13:54
  TRACK 12 AUDIO
    TITLE "0:"
    INDEX 01 00:18:47
  TRACK 13 AUDIO
    TITLE "3:cjc172_1789"
    INDEX 01 00:19:29
  TRACK 14 AUDIO
    TITLE "0:"
    INDEX 01 00:20:33
  TRACK 15 AUDIO
    TITLE "4:cjc172_1790"
    INDEX 01 00:20:50
  TRACK 16 AUDIO
    TITLE "0:"
    INDEX 01 00:23:11
  TRACK 17 AUDIO
    TITLE "5:cjc172_1791"
    INDEX 01 00:23:25
  TRACK 18 AUDIO
    TITLE "0:"
    INDEX 01 00:29:67
  TRACK 19 AUDIO
    TITLE "3:cjc172_1792"
    INDEX 01 00:30:47
  TRACK 20 AUDIO
    TITLE "0:"
    INDEX 01 00:32:04
  TRACK 21 AUDIO
    TITLE "4:cjc172_1793"
    INDEX 01 00:32:22
  TRACK 22 AUDIO
    TITLE "0:"
    INDEX 01 00:33:74
  TRACK 23 AUDIO
    TITLE "5:cjc172_1794"
    INDEX 01 00:34:13
  TRACK 24 AUDIO
    TITLE "0:"
    INDEX 01 00:40:37
  TRACK 25 AUDIO
    TITLE "3:cjc172_1795"
    INDEX 01 00:41:15
  TRACK 26 AUDIO
    TITLE "0:"
    INDEX 01 00:42:19
  TRACK 27 AUDIO
    TITLE "4:cjc172_1796"
    INDEX 01 00:42:36
  TRACK 28 AUDIO
    TITLE "0:"
    INDEX 01 00:44:55
  TRACK 29 AUDIO
    TITLE "5:cjc172_1797"
    INDEX 01 00:44:68
  TRACK 30 AUDIO
    TITLE "0:"
    INDEX 01 00:52:29
  TRACK 31 AUDIO
    TITLE "3:cjc172_1798"
    INDEX 01 00:53:05
  TRACK 32 AUDIO
    TITLE "0:"
    INDEX 01 00:54:31
  TRACK 33 AUDIO
    TITLE "4:cjc172_1799"
    INDEX 01 00:54:49
  TRACK 34 AUDIO
    TITLE "0:"
    INDEX 01 00:57:24
  TRACK 35 AUDIO
    TITLE "5:cjc172_1800"
    INDEX 01 00:57:38
  TRACK 36 AUDIO
    TITLE "0:"
    INDEX 01 01:02:54
  TRACK 37 AUDIO
    TITLE "3:cjc172_1801"
    INDEX 01 01:03:34
  TRACK 38 AUDIO
    TITLE "0:"
    INDEX 01 01:04:55
  TRACK 39 AUDIO
    TITLE "4:cjc172_1802"
    INDEX 01 01:04:75
  TRACK 40 AUDIO
    TITLE "0:"
    INDEX 01 01:07:32
  TRACK 41 AUDIO
    TITLE "5:cjc172_1803"
    INDEX 01 01:07:48
  TRACK 42 AUDIO
    TITLE "0:"
    INDEX 01 01:12:47
  TRACK 43 AUDIO
    TITLE "3:cjc172_1804"
    INDEX 01 01:13:25
  TRACK 44 AUDIO
    TITLE "0:"
    INDEX 01 01:14:34
  TRACK 45 AUDIO
    TITLE "4:cjc172_1805"
    INDEX 01 01:14:52
  TRACK 46 AUDIO
    TITLE "0:"
    INDEX 01 01:16:06
  TRACK 47 AUDIO
    TITLE "5:cjc172_1806"
    INDEX 01 01:16:19
  TRACK 48 AUDIO
    TITLE "0:"
    INDEX 01 01:23:27
  TRACK 49 AUDIO
    TITLE "3:cjc172_1807"
    INDEX 01 01:24:09
  TRACK 50 AUDIO
    TITLE "0:"
    INDEX 01 01:25:24
  TRACK 51 AUDIO
    TITLE "4:cjc172_1808"
    INDEX 01 01:25:40
  TRACK 52 AUDIO
    TITLE "0:"
    INDEX 01 01:29:57
  TRACK 53 AUDIO
    TITLE "5:cjc172_1809"
    INDEX 01 01:29:71
  TRACK 54 AUDIO
    TITLE "0:"
    INDEX 01 01:36:67
  TRACK 55 AUDIO
    TITLE "2:cjc172_1810"
    INDEX 01 01:37:47
  TRACK 56 AUDIO
    TITLE "0:"
    INDEX 01 01:38:46
  TRACK 57 AUDIO
    TITLE "3:cjc172_1811"
    INDEX 01 01:39:24
  TRACK 58 AUDIO
    TITLE "0:"
    INDEX 01 01:40:57
  TRACK 59 AUDIO
    TITLE "4:cjc172_1812"
    INDEX 01 01:40:73
  TRACK 60 AUDIO
    TITLE "0:"
    INDEX 01 01:43:42
  TRACK 61 AUDIO
    TITLE "5:cjc172_1813"
    INDEX 01 01:43:57
  TRACK 62 AUDIO
    TITLE "0:"
    INDEX 01 01:49:27
  TRACK 63 AUDIO
    TITLE "3:cjc172_1814"
    INDEX 01 01:50:06
  TRACK 64 AUDIO
    TITLE "0:"
    INDEX 01 01:51:29
  TRACK 65 AUDIO
    TITLE "4:cjc172_1815"
    INDEX 01 01:51:47
  TRACK 66 AUDIO
    TITLE "0:"
    INDEX 01 01:54:57
  TRACK 67 AUDIO
    TITLE "5:cjc172_1816"
    INDEX 01 01:54:71
  TRACK 68 AUDIO
    TITLE "0:"
    INDEX 01 02:01:45
  TRACK 69 AUDIO
    TITLE "3:cjc172_1817"
    INDEX 01 02:02:25
  TRACK 70 AUDIO
    TITLE "0:"
    INDEX 01 02:03:70
  TRACK 71 AUDIO
    TITLE "4:cjc172_1818"
    INDEX 01 02:04:09
  TRACK 72 AUDIO
    TITLE "0:"
    INDEX 01 02:05:16
  TRACK 73 AUDIO
    TITLE "5:cjc172_1819"
    INDEX 01 02:05:30
  TRACK 74 AUDIO
    TITLE "0:"
    INDEX 01 02:10:58
  TRACK 75 AUDIO
    TITLE "3:cjc172_1820"
    INDEX 01 02:11:36
  TRACK 76 AUDIO
    TITLE "0:"
    INDEX 01 02:12:45
  TRACK 77 AUDIO
    TITLE "4:cjc172_1821"
    INDEX 01 02:12:61
  TRACK 78 AUDIO
    TITLE "0:"
    INDEX 01 02:15:57
  TRACK 79 AUDIO
    TITLE "5:cjc172_1822"
    INDEX 01 02:15:75
  TRACK 80 AUDIO
    TITLE "0:"
    INDEX 01 02:21:21
